# xmcd
#
# Track frame offsets:
#	150
#	10790
#	23702
#	38755
#	56382
#	83390
#	106602
#	115102
#	129070
#	153137
#	175552
#	187922
#	199307
#	211317
#	229550
#	248075
#
# Disc length: 3439 seconds
# Revision: 0
# Processed by: cddbd v1.5.2PL0 Copyright (c) Steve Scherf et al.
# Submitted via: dBpowerAMP V12.0
#
DISCID=a80d6d10
DTITLE=Various Artist - Telluride Bluegrass Festival - Alive at 25 [CD1]
DYEAR=2002
DGENRE=Bluegrass
TTITLE0=Hot Rize - Blue Night
TTITLE1=The Del McCoury Band - Rawhide
TTITLE2=Sam Bush Band - The White Freightliner Blues
TTITLE3=John Cowan Band - This River
TTITLE4=Sam Bush Band - Hold On
TTITLE5=Peter Himmelman - Doug and John (The Telluride Blues)
TTITLE6=John Hartford and Friends - Old Cow Died
TTITLE7=Catie Curtis - Slave to My Belly
TTITLE8=The String Cheese Incident - Road Home
TTITLE9=Mary Chapin Carpenter - I Am a Town
TTITLE10=The Nashville Bluegrass Band - Boll Weevil
TTITLE11=Blue Highway - Wind to the West
TTITLE12=Tony Rice - Good Old Mountain Dew
TTITLE13=The Fairfield Four - Jesus' Love Just Bubbles Over in My Heart
TTITLE14=Washboard Chaz - Dinah
TTITLE15=Knuckles, Red And The Trailblazers - Roughneck Blues
EXTD=
EXTT0=
EXTT1=
EXTT2=
EXTT3=
EXTT4=
EXTT5=
EXTT6=
EXTT7=
EXTT8=
EXTT9=
EXTT10=
EXTT11=
EXTT12=
EXTT13=
EXTT14=
EXTT15=
PLAYORDER=
